<?xml version="1.0" encoding="UTF-8" standalone="no"?>
<svg
   width="140.19359mm"
   height="93.789383mm"
   viewBox="0 0 496.74893 332.32458"
   version="1.1"
   id="svg26"
   sodipodi:docname="blueway.svg"
   inkscape:version="1.1.2 (0a00cf5339, 2022-02-04)"
   xmlns:inkscape="http://www.inkscape.org/namespaces/inkscape"
   xmlns:sodipodi="http://sodipodi.sourceforge.net/DTD/sodipodi-0.dtd"
   xmlns="http://www.w3.org/2000/svg"
   xmlns:svg="http://www.w3.org/2000/svg">
  <sodipodi:namedview
     id="namedview20"
     pagecolor="#ffffff"
     bordercolor="#666666"
     borderopacity="1.0"
     inkscape:pageshadow="2"
     inkscape:pageopacity="0.0"
     inkscape:pagecheckerboard="0"
     inkscape:document-units="mm"
     showgrid="false"
     inkscape:zoom="1.3258875"
     inkscape:cx="327.70504"
     inkscape:cy="176.86267"
     inkscape:window-width="1322"
     inkscape:window-height="704"
     inkscape:window-x="0"
     inkscape:window-y="0"
     inkscape:window-maximized="1"
     inkscape:current-layer="svg26" />
  <defs
     id="defs30">
    <clipPath
       clipPathUnits="userSpaceOnUse"
       id="clipPath3">
      <path
         id="path4"
         style="fill:#0693d5;fill-opacity:1;stroke-width:17.0079;stroke-miterlimit:4;stroke-dasharray:none"
         d="M 231.04065,8.4649659 C 201.36242,8.4917006 174.57915,26.135871 163.03162,53.226929 151.75389,46.685865 138.93777,43.24671 125.87036,43.21106 c -40.830054,0 -73.925169,32.794815 -73.925169,73.25317 0.03597,8.26099 1.47474,16.45973 4.262695,24.23951 -28.347207,8.7333 -48.5173201,37.50049 -47.6641847,64.11804 1.5786867,49.25452 44.9788397,112.65988 133.0279587,93.6438 46.416,50.44183 87.70015,53.41152 145.71151,21.52405 10.08817,3.98811 20.84805,6.03871 31.71387,6.06994 35.54019,0 66.6191,-21.52363 79.58496,-53.57849 17.36529,0.24093 34.50414,0.52533 51.19629,0.91553 30.64952,0 55.48828,-24.61424 55.48828,-54.98474 0,-18.62511 -9.52326,-35.97538 -25.2887,-46.10779 1.67277,-6.14005 2.5528,-12.47689 2.5708,-18.83972 0,-40.45835 -33.09511,-73.253178 -73.92517,-73.253178 -7.60842,0.01782 -15.5571,1.134541 -22.80579,3.451539 -8.74159,-31.921109 -37.57502,-54.050904 -70.94055,-54.050904 -9.29918,0.02674 -18.50989,1.783416 -27.14355,5.196533 C 273.70405,18.143785 252.94875,8.4917009 231.04981,8.4649659 Z" />
    </clipPath>
  </defs>
  <path
     id="path14"
     style="fill:#0693d5;fill-opacity:1;stroke-width:8.9409;stroke-miterlimit:4;stroke-dasharray:none"
     d="m 236.01735,12.498081 c -15.44677,0.0142 -29.38679,9.38253 -35.39699,23.76677 -5.86977,-3.47304 -12.54023,-5.29909 -19.34149,-5.31802 -21.25101,0 -38.47618,17.41271 -38.47618,38.89444 0.0187,4.38625 0.76757,8.73944 2.21863,12.87019 -14.75401,4.63702 -25.25204,19.911219 -24.808,34.044049 0.82166,26.15214 23.41034,59.81779 69.23768,49.72103 24.15835,26.78255 45.64571,28.35933 75.83915,11.42839 5.25064,2.11752 10.85089,3.20631 16.50627,3.22289 18.49777,0 34.67355,-11.42817 41.42196,-28.44799 9.03819,0.12793 17.95853,0.27893 26.64637,0.48611 15.9523,0 28.88024,-13.06915 28.88024,-29.19465 0,-9.88917 -4.95661,-19.10145 -13.16212,-24.481349 0.87063,-3.26011 1.32866,-6.62471 1.33803,-10.00312 0,-21.48173 -17.22516,-38.89444 -38.47618,-38.89444 -3.95999,0.009 -8.09707,0.6024 -11.86983,1.83263 -4.54978,-16.9488 -19.55685,-28.69882 -36.92276,-28.69882 -4.83999,0.0142 -9.63393,0.94692 -14.12753,2.75915 -7.30203,-8.84821 -18.10464,-13.97307 -29.50249,-13.98726 z" />
  <g
     id="g3"
     clip-path="url(#clipPath3)"
     transform="matrix(0.52047468,0,0,0.5309591,115.76654,8.0035307)">
    <g
       id="g1"
       transform="translate(0,-17.599225)">
      <path
         style="fill:none;stroke:#ffffff;stroke-width:17.0079;stroke-linecap:butt;stroke-linejoin:round;stroke-miterlimit:4;stroke-dasharray:none;stroke-opacity:1"
         d="M 185.96138,381.44639 V 229.29102 h -59.35139"
         id="path4642" />
      <circle
         style="font-variation-settings:normal;vector-effect:none;fill:none;fill-opacity:1;stroke:#ffffff;stroke-width:17.0079;stroke-linecap:butt;stroke-linejoin:miter;stroke-miterlimit:4;stroke-dasharray:none;stroke-dashoffset:0;stroke-opacity:1;-inkscape-stroke:none;stop-color:#000000"
         id="path4755"
         cx="103.52539"
         cy="-230.06583"
         r="28.885059"
         transform="scale(1,-1)" />
    </g>
    <g
       id="g4904"
       transform="translate(-1.0488702,-228.48073)"
       style="font-variation-settings:normal;opacity:1;vector-effect:none;fill:none;fill-opacity:1;stroke:#ffffff;stroke-width:17.0079;stroke-linecap:butt;stroke-linejoin:round;stroke-miterlimit:4;stroke-dasharray:none;stroke-dashoffset:0;stroke-opacity:1;-inkscape-stroke:none;stop-color:#000000;stop-opacity:1">
      <path
         style="font-variation-settings:normal;vector-effect:none;fill:none;fill-opacity:1;stroke:#ffffff;stroke-width:17.0079;stroke-linecap:butt;stroke-linejoin:round;stroke-miterlimit:4;stroke-dasharray:none;stroke-dashoffset:0;stroke-opacity:1;-inkscape-stroke:none;stop-color:#000000;stop-opacity:1"
         d="m 192.55189,224.99755 v 170.98992 h 64.35392 v 69.34504"
         id="path4644" />
      <circle
         style="font-variation-settings:normal;opacity:1;vector-effect:none;fill:none;fill-opacity:1;stroke:#ffffff;stroke-width:17.0079;stroke-linecap:butt;stroke-linejoin:round;stroke-miterlimit:4;stroke-dasharray:none;stroke-dashoffset:0;stroke-opacity:1;-inkscape-stroke:none;stop-color:#000000;stop-opacity:1"
         id="circle4891"
         cx="257.50748"
         cy="485.94617"
         r="28.885059" />
    </g>
    <g
       id="g4900"
       transform="rotate(180,325.67879,269.83374)"
       style="font-variation-settings:normal;opacity:1;vector-effect:none;fill:none;fill-opacity:1;stroke:#ffffff;stroke-width:17.0079;stroke-linecap:round;stroke-linejoin:miter;stroke-miterlimit:4;stroke-dasharray:none;stroke-dashoffset:0;stroke-opacity:1;-inkscape-stroke:none;stop-color:#000000;stop-opacity:1">
      <path
         style="font-variation-settings:normal;vector-effect:none;fill:none;fill-opacity:1;stroke:#ffffff;stroke-width:17.0079;stroke-linecap:butt;stroke-linejoin:round;stroke-miterlimit:4;stroke-dasharray:none;stroke-dashoffset:0;stroke-opacity:1;-inkscape-stroke:none;stop-color:#000000;stop-opacity:1"
         d="m 313.47654,148.0522 v 298.97866 h 49.68934"
         id="path4726" />
      <circle
         style="font-variation-settings:normal;opacity:1;vector-effect:none;fill:none;fill-opacity:1;stroke:#ffffff;stroke-width:17.0079;stroke-linecap:round;stroke-linejoin:miter;stroke-miterlimit:4;stroke-dasharray:none;stroke-dashoffset:0;stroke-opacity:1;-inkscape-stroke:none;stop-color:#000000;stop-opacity:1"
         id="circle4893"
         cx="391.36224"
         cy="446.23611"
         r="28.885059" />
    </g>
    <g
       id="g2"
       transform="rotate(-90,249.16968,288.69305)"
       style="font-variation-settings:normal;opacity:1;vector-effect:none;fill:none;fill-opacity:1;stroke:#ffffff;stroke-width:17.0079;stroke-linecap:round;stroke-linejoin:miter;stroke-miterlimit:4;stroke-dasharray:none;stroke-dashoffset:0;stroke-opacity:1;-inkscape-stroke:none;stop-color:#000000;stop-opacity:1">
      <path
         style="font-variation-settings:normal;vector-effect:none;fill:none;fill-opacity:1;stroke:#ffffff;stroke-width:17.0079;stroke-linecap:butt;stroke-linejoin:round;stroke-miterlimit:4;stroke-dasharray:none;stroke-dashoffset:0;stroke-opacity:1;-inkscape-stroke:none;stop-color:#000000;stop-opacity:1"
         d="m 328.64108,376.16547 v 70.86539 h 34.5248"
         id="path1" />
      <circle
         style="font-variation-settings:normal;opacity:1;vector-effect:none;fill:none;fill-opacity:1;stroke:#ffffff;stroke-width:17.0079;stroke-linecap:round;stroke-linejoin:miter;stroke-miterlimit:4;stroke-dasharray:none;stroke-dashoffset:0;stroke-opacity:1;-inkscape-stroke:none;stop-color:#000000;stop-opacity:1"
         id="circle1"
         cx="391.36224"
         cy="446.23611"
         r="28.885059" />
    </g>
  </g>
  <text
     xml:space="preserve"
     style="font-size:27.5px;line-height:1.25;font-family:monospace;-inkscape-font-specification:monospace;stroke-width:0.9375;fill:#0000ff"
     x="104.50603"
     y="236.36421"
     id="text4513"><tspan
       sodipodi:role="line"
       id="tspan4511"
       style="font-size:27.5px;stroke-width:0.9375;fill:#0000ff"
       x="104.50603"
       y="236.36421">Blue Way Logistics</tspan></text>
  <text
     xml:space="preserve"
     style="font-size:30px;line-height:1.25;font-family:monospace;-inkscape-font-specification:monospace;stroke-width:0.9375;fill:#0000ff"
     x="85.928772"
     y="279.22504"
     id="text9911"><tspan
       sodipodi:role="line"
       id="tspan9909"
       style="font-size:30px;stroke-width:0.9375;fill:#0000ff"
       x="85.928772"
       y="279.22504">free as in freedom</tspan></text>
  <text
     xml:space="preserve"
     style="font-size:12.5px;line-height:1.25;font-family:monospace;-inkscape-font-specification:monospace;stroke-width:0.9375;fill:#0000ff"
     x="49.970215"
     y="306.23743"
     id="text14771"><tspan
       sodipodi:role="line"
       id="tspan14769"
       style="font-size:12.5px;stroke-width:0.9375;fill:#0000ff"
       x="49.970215"
       y="306.23743">Masscollabs Services and Procyberian System Distribution</tspan></text>
</svg>
